<?xml version="1.0" encoding="UTF-8"?><svg id="Layer_2" xmlns="http://www.w3.org/2000/svg" viewBox="0 0 1000 1000"><defs><style>.cls-1{fill:#ad2031;stroke-width:0px;}</style></defs><path class="cls-1" d="m440.65,443.09c-.9,3.39-1.89,6.62-2.88,9.67h28.83v55.48h-11.44v-5.09h-39.83v5.09h-10.9v-55.48h21.99c.63-3.05,1.17-6.36,1.62-9.67h-32.62v-9.84h79.21v9.84h-33.97Zm14.51,19h-39.83v11.11h39.83v-11.11Zm0,31.72v-11.45h-39.83v11.45h39.83Z"/><path class="cls-1" d="m533.49,467.83c-.36,3.14-.72,6.11-1.26,8.99,5.14,14,16.31,21.63,37.85,23.67-2.16,2.2-4.96,6.36-6.13,9.25-18.2-2.8-28.74-9.25-35.59-20.61-5.14,10.09-15.41,17.31-37.57,21.55-.99-2.63-3.51-6.7-5.68-8.74,32.62-5.34,35.32-16.63,37.03-34.1h11.35Zm-24.06,6.53c-2.07,6.19-5.23,12.98-9.82,17.47l-9.01-5c4.33-3.9,7.75-10.01,9.64-15.78l9.19,3.31Zm50.46-8.23h-66.86v-8.91h56.59v-3.99h-52.53v-6.96h52.53v-4.07h-56.59v-8.99h66.86v32.91Zm-16.04,20.78c3.06-4.16,7.12-11.03,9.28-16.2l9.28,5.01c-3.42,5.6-7.39,11.62-10.54,15.78l-8.02-4.58Z"/><path class="cls-1" d="m664.28,458.83c-2.7,13.06-6.76,24.26-12.8,33.51,1.62,4.92,3.51,7.89,5.5,7.89,1.62,0,2.43-4.24,2.7-14.25,2.25,2.21,5.68,4.33,8.29,5.43-1.44,14.76-4.51,18.58-12.16,18.58-4.78,0-8.38-3.31-11.26-8.74-3.24,3.48-6.85,6.45-10.9,9.08-1.44-1.87-5.23-5.43-7.39-7.04,5.68-3.22,10.45-7.38,14.33-12.3-2.88-10.52-4.41-24.6-5.14-39.61h-35.68v15.44c0,12.56-1.35,31.22-9.37,42.75-1.62-1.7-5.77-4.92-8.02-5.94,6.85-10.6,7.48-25.7,7.48-36.81v-24.6h45.23c-.09-3.82-.18-7.63-.18-11.45h10.54c-.09,3.9-.09,7.63,0,11.45h11.53c-2.7-2.12-6.67-4.58-9.82-6.36l5.85-5.77c4.06,1.95,9.19,5.09,11.9,7.38l-4.78,4.75h6.13v9.16h-20.54c.45,9.84,1.35,19,2.61,26.72,2.7-6.11,4.68-13.06,6.04-20.61l9.91,1.36Zm-35.59,42.33c-1.98-1.44-4.59-2.88-7.3-4.5-4.78,4.16-10.45,7.38-16.85,9.67-.9-2.2-3.24-5.34-4.96-7.04,5.05-1.44,9.73-3.82,13.69-6.87-3.96-1.95-8.02-3.65-11.71-5.09,1.62-2.71,3.33-5.94,4.96-9.5h-4.86v-7.46h8.2c.9-2.29,1.8-4.5,2.52-6.7h-9.82v-7.72h30.64v7.72h-11.53c-.72,2.2-1.53,4.41-2.34,6.7h9.1l1.53-.26,5.59,1.78c-1.8,7.46-4.69,13.57-8.56,18.66,2.79,1.44,5.23,2.88,7.21,4.16l-5.5,6.45Zm-12.52-23.33c-.99,2.12-1.98,4.24-2.88,6.02,1.98.93,4.06,1.87,6.04,2.8,2.16-2.63,3.87-5.51,5.32-8.82h-8.47Z"/><path class="cls-1" d="m717.74,484.79c-1.08-2.38-3.24-5.94-5.41-9.33v34.44h-10.36v-30.54c-2.98,6.53-6.31,12.55-9.82,16.8-.99-2.88-3.33-7.04-4.96-9.59,5.05-5.43,10.09-14.51,13.34-22.73h-12.16v-9.42h13.61v-9.59c-3.52.51-6.85,1.02-10.18,1.36-.36-2.29-1.71-5.6-2.88-7.8,10.27-1.44,21.53-4.07,29.02-6.96l6.04,8.23c-3.51,1.27-7.48,2.29-11.62,3.14v11.62h11.89v9.42h-11.89v.68c2.61,2.38,10,10.35,11.71,12.3l-6.31,7.97Zm44.42,3.65v21.38h-10.54v-19.59l-27.21,4.41-1.71-9.59,28.92-4.67v-49.71h10.54v48.01l8.92-1.44,1.71,9.42-10.63,1.78Zm-22.62-11.79c-2.79-3.73-9.1-9.16-14.33-12.98l6.85-5.77c5.14,3.39,11.8,8.65,14.78,12.3l-7.3,6.45Zm2.34-22.39c-2.52-3.65-8.38-9.08-13.43-12.72l7.03-5.77c4.87,3.48,11.17,8.48,13.88,12.22l-7.48,6.28Z"/><path class="cls-1" d="m817.27,475.97c-3.15.85-6.4,1.7-9.64,2.46v20.27c0,4.92-.99,7.29-4.05,8.91-2.98,1.53-7.3,1.78-13.61,1.78-.45-2.54-1.8-6.53-3.06-9.16,3.51.08,7.21.08,8.38.08,1.35,0,1.71-.42,1.71-1.7v-17.47l-8.74,2.04-2.79-9.59c3.33-.59,7.21-1.44,11.53-2.46v-15.01h-10.36v-9.33h10.36v-16.12h10.63v16.12h8.83v9.33h-8.83v12.55l8.29-1.95,1.35,9.25Zm49.92-11.45c-3.42,11.79-9.19,21.04-16.76,28.16,5.85,3.9,12.8,6.7,20.81,8.57-2.25,2.04-5.32,6.11-6.85,8.74-8.74-2.46-16.22-5.94-22.44-10.69-7.03,4.58-14.96,7.97-23.7,10.43-1.17-2.71-3.78-6.96-5.77-9.16,7.93-1.78,15.23-4.5,21.53-8.31-5.32-5.68-9.55-12.38-12.8-20.19l2.7-.76h-4.69v-9.08h17.75v-10.18h-19.37v-9.33h19.37v-12.13h10.63v12.13h20.18v9.33h-20.18v10.18h10.81l1.89-.42,6.85,2.71Zm-35.5,6.79c2.52,5.6,6.13,10.69,10.63,15.02,4.69-4.24,8.56-9.25,11.26-15.02h-21.9Z"/><path class="cls-1" d="m100.15,571.14c-3.77,1-12.06,1.23-13.79-3.64,0,0,8.74-14.15,19.49-2.45,0,0,2.33,3.92-5.7,6.08h0Zm-21.87,43.85c-3.2,1.28-22.48-22.73-19.63-40.07,0,0,11.18,5.19,18.08,5.72,0,0,3.11,14.08,15.47,24.28,0,0-4.92,6.47-13.92,10.07h0Zm156.69-244.27c-2.46-.86-10.28,24.54-36.47,56.79-1.26,1.55-2.11,2.55-2.51,3.05-34.23,45.7-83.16,73.61-89.52,76.2-6.64,2.69-7.8,6.07-2.34,8.43,40.69,16.98,39.61,54.15,32.59,73.01-4.17,12.16-15.67,14.98-22.82,15.65-8.28.79-6.9-3.69-6.9-3.69,3.79-8.76,3.03-19.29,2.75-22-.04-.4.19-.76.56-.91,2.22-.85,9.57-3.75,10.69-5.2,2.02-2.64,2.68-23.62-13.89-32.91-28.76-16.14-46.89,5.42-50.13,9.74-.3.4-.86.47-1.25.16-24.36-19.13-17.26-52.15-17.03-53.17,0-.02,0-.03,0-.05,1.01-7.39,4.25-14.97,6.02-18.69.36-.77-.46-1.57-1.21-1.17-2.91,1.56-5.82,3.52-8.57,5.98-17.06,15.23-16.81,39.31-16.38,46.6.04.64-.59,1.09-1.19.87-.47-.17-1.04-.43-1.69-.83-.56-.35-1.3,0-1.35.66-1.06,13.38,2.67,26.95,4.04,31.38.2.66-.39,1.3-1.06,1.12-.46-.12-1-.28-1.61-.46-.58-.18-1.18.27-1.15.88.64,13.66,5.61,22.71,8.06,26.4.45.68-.17,1.55-.96,1.34-.44-.12-.86-.24-1.31-.4-.66-.23-1.32.36-1.16,1.04,1.89,7.97,9.17,14.79,12.79,17.76.66.54.25,1.61-.6,1.56-.02,0-.04,0-.06,0-.74-.04-1.22.78-.79,1.39,3.18,4.4,10.61,10.29,17.17,12.76,19.02,7.44,33.48,2.82,35.38,2.15.15-.05.3-.06.46-.03,3.02.61,18.3,4.84,33.72,2.44,55.42-8.59,70.35-49.07,72.01-54.06,1.68-4.97.32-5.03-1.32-2.94-2.21,2.8-5.8,4.46-8.54,5.37-.9.3-1.58-.85-.88-1.48,13.56-12.34,21.18-32.15,22.52-37.1,1.93-7.11-1.48-4.07-2.58-2.86-4.63,5.06-9.59,8.34-12.94,10.21-.85.48-1.74-.6-1.1-1.34,12.27-14.36,17.96-28.29,19.8-36.19,2.14-9.06-1.66-4.73-1.66-4.73-4.46,6.39-9.39,10.37-12.92,12.65-.86.56-1.81-.56-1.13-1.33,24.49-27.53,28.96-59.2,29.72-63.13,1.49-7.91-3.37-.77-5.81,2.87-5.42,8.04-12.38,14.5-17.03,18.34-.8.66-1.88-.36-1.27-1.2,12.65-17.46,25.55-39.86,34.47-67.45,5.8-17.94,8.22-32.83,6.38-33.47Z"/><path class="cls-1" d="m324.87,550.65l-9.79,45.55c-.16.32-.29.85-.39,1.59-2.09,9.75-5.39,16.32-9.89,19.71-4.5,3.39-11.03,5.09-19.59,5.09-3.44,0-6.59-.15-9.46-.46-2.86-.3-5.75-1.09-8.66-2.34-2.91-1.25-5.31-3.27-7.19-6.05-1.88-2.78-2.82-6.49-2.82-11.12,0-1.32.16-2.98.48-4.97l20.65-2.36v.82c-.13.9-.19,1.82-.19,2.75v1.5c0,3.89,2.14,5.84,6.42,5.84,2.06,0,3.67-.51,4.83-1.54,1.16-1.03,2.02-2.35,2.58-3.96.56-1.61,1.15-3.89,1.76-6.85l9.31-43.18h21.95Z"/><path class="cls-1" d="m378.07,600.8c-1.75,2.43-3.76,4.87-6.03,7.3.57.49,2.28,2.06,5.13,4.72l-9.35,9.59c-1.18-.85-2.79-2.17-4.84-3.98-.63-.6-1.13-1.04-1.52-1.31-3.45,2.16-6.56,3.58-9.35,4.26-2.79.68-6.11,1.02-9.96,1.02-8.26,0-14.28-1.67-18.08-5-3.8-3.33-5.7-7.27-5.7-11.81,0-8.67,5.74-15.13,17.22-19.4-2.19-3.83-3.28-7.43-3.28-10.83,0-4.84,1.89-8.57,5.68-11.19,3.78-2.62,8.52-3.94,14.21-3.94s10.26,1.26,13.72,3.77c3.46,2.52,5.19,5.63,5.19,9.35,0,2.35-.61,4.44-1.84,6.27-1.23,1.83-2.8,3.43-4.72,4.8-1.91,1.37-4.32,2.82-7.22,4.35-.16.05-.81.4-1.93,1.02l7.5,9.14c1.15-1.42,2.49-2.98,4.02-4.68.46-.52.76-.89.9-1.11l10.25,7.63Zm-25.87,6.97c-4.37-4.54-7.78-8.54-10.21-12.01-4.89,2.54-7.34,5.4-7.34,8.57,0,1.06.28,2.19.84,3.36.56,1.18,1.4,2.11,2.52,2.81,1.12.7,2.5,1.04,4.14,1.04,3.03,0,6.38-1.26,10.05-3.77Zm-2.91-27.11c2.79-1.28,4.84-2.62,6.15-4.02,1.31-1.39,1.97-2.66,1.97-3.81,0-.98-.46-1.85-1.37-2.58-.92-.74-2.07-1.11-3.46-1.11-1.75,0-3.16.55-4.22,1.64-1.07,1.09-1.6,2.42-1.6,3.98,0,1.39.85,3.36,2.54,5.9Z"/><path class="cls-1" d="m466.31,550.65l-30.64,26.68,21.66,44.05h-23.64l-13.32-30.64-15.44,13.27-3.62,17.37h-22.05l15.1-70.73h22.05l-5.74,26.44.19.24,26.68-26.68h28.76Z"/><path class="cls-1" d="m560.78,570.29l-20.46,1.11c-.45-6.14-3.88-9.22-10.28-9.22-2.6,0-4.61.56-6.01,1.67-1.4,1.11-2.1,2.44-2.1,3.98,0,1.13.56,2.2,1.69,3.21,1.13,1.01,3.8,2.31,8.01,3.89,5.34,2.06,9.68,4,13.03,5.84,3.34,1.83,6.08,4.21,8.2,7.14,2.12,2.93,3.18,6.58,3.18,10.95,0,4.12-1.15,7.95-3.45,11.51-2.3,3.55-5.61,6.48-9.94,8.78-4.33,2.3-10.48,3.45-18.45,3.45-11.23,0-19.19-2.15-23.88-6.47-4.7-4.31-7.04-9.84-7.04-16.6v-1.64l20.55-1.4c0,4.41.97,7.52,2.92,9.34,1.95,1.82,4.64,2.73,8.08,2.73s6.12-.76,7.94-2.27c1.82-1.51,2.73-3.23,2.73-5.16,0-1.45-.58-2.78-1.74-4-1.16-1.22-4-2.65-8.54-4.29-10.39-3.73-16.96-7.17-19.71-10.32-2.75-3.15-4.12-6.95-4.12-11.39,0-4.05,1.13-7.75,3.4-11.1,2.27-3.35,5.56-5.94,9.89-7.79,4.33-1.85,9.51-2.78,15.56-2.78,19.14,0,29.32,6.95,30.54,20.84Z"/><path class="cls-1" d="m623.62,587.99l-17.76.96c-.84-4.47-3.84-6.71-9.02-6.71-4.79,0-8.48,1.94-11.05,5.81s-3.86,8.1-3.86,12.66c0,2.77.92,4.89,2.75,6.37,1.83,1.48,3.81,2.22,5.94,2.22,5.24,0,9.13-2.89,11.68-8.68l18.38,1.98c-4.54,13.32-14.81,19.98-30.83,19.98-18.04,0-27.07-7.38-27.07-22.15,0-8.59,2.97-15.97,8.93-22.15,5.95-6.18,14.33-9.26,25.14-9.26,7.75,0,13.94,1.58,18.58,4.75,4.63,3.17,7.36,7.91,8.2,14.21Z"/><path class="cls-1" d="m655.09,570.19l-11,51.19h-19.73l10.95-51.19h19.78Zm4.05-19.54l-2.8,13.51h-19.64l2.75-13.51h19.68Z"/><path class="cls-1" d="m713.75,608.26c-2.86,5.08-6.6,8.74-11.22,10.97-4.62,2.24-10.4,3.36-17.35,3.36-10.1,0-17.28-2.28-21.54-6.83-4.26-4.55-6.39-10.12-6.39-16.72,0-4.57,1-8.87,2.99-12.91,1.99-4.04,4.7-7.42,8.1-10.16,3.41-2.73,6.77-4.58,10.09-5.52,3.31-.95,7.19-1.42,11.63-1.42,9.55,0,16.41,2.07,20.56,6.22,4.15,4.15,6.22,9.25,6.22,15.3,0,1.99-.43,5.42-1.3,10.28h-39.03c.55,6.85,3.62,10.28,9.22,10.28,3.8,0,6.82-1.54,9.07-4.63l18.96,1.79Zm-16.4-16.94c.23-.71.34-1.69.34-2.94,0-2.61-.78-4.58-2.34-5.91-1.56-1.33-3.48-2-5.77-2-2.41,0-4.63.91-6.66,2.73s-3.57,4.53-4.63,8.13h19.06Z"/><path class="cls-1" d="m746.57,578.1c5.4-6.05,12-9.07,19.78-9.07,4.63,0,8.11,1.18,10.42,3.54,2.32,2.36,3.47,5.27,3.47,8.71,0,2.06-.64,6.11-1.93,12.16l-5.94,27.94h-19.68l5.07-23.79c1.22-5.82,1.83-9.15,1.83-9.99,0-2.83-1.29-4.24-3.86-4.24-2.89,0-5.42,1.36-7.57,4.08-2.15,2.72-3.78,6.63-4.87,11.75l-4.82,22.19h-19.78l11-51.19h18.38l-1.69,7.72.19.19Z"/><path class="cls-1" d="m826.23,570.19l-2.99,14.04h-10.28l-3.76,18.09c-.26.77-.39,1.59-.39,2.46,0,2.31,1.53,3.47,4.58,3.47.97,0,2.99-.31,6.08-.92l-2.94,14.04c-5.92.8-10.26,1.21-13.03,1.21-5.5,0-9.4-1.32-11.7-3.96-2.3-2.64-3.45-5.52-3.45-8.64,0-1.03.47-3.78,1.4-8.25l3.67-17.51h-7.04l2.89-14.04h7.19l1.69-8.01,21.95-10.95-4.05,18.96h10.18Z"/><path class="cls-1" d="m856.06,570.19l-11,51.19h-19.73l10.95-51.19h19.78Zm4.05-19.54l-2.8,13.51h-19.64l2.75-13.51h19.68Z"/><path class="cls-1" d="m903.76,551.61l-3.14,11.68c-2.77-.87-5.05-1.3-6.85-1.3-1.51,0-2.73.35-3.67,1.06-.93.71-1.75,3.09-2.46,7.14h10.47l-3.04,14.04h-10.37l-7.91,37.15h-18.58l8.11-37.15h-6.23l2.94-14.04h6.13c1.16-5.44,1.92-8.82,2.29-10.16.37-1.34,1.1-2.85,2.2-4.54,1.09-1.69,2.78-3.12,5.04-4.3,2.27-1.17,5.22-1.76,8.85-1.76,4.57,0,9.97.72,16.21,2.17Zm20.07,18.58l-10.95,51.19h-19.78l10.95-51.19h19.78Zm4.05-19.54l-2.8,13.51h-19.64l2.75-13.51h19.68Z"/><path class="cls-1" d="m985.86,587.99l-17.76.96c-.84-4.47-3.84-6.71-9.02-6.71-4.79,0-8.48,1.94-11.05,5.81-2.57,3.88-3.86,8.1-3.86,12.66,0,2.77.92,4.89,2.75,6.37,1.83,1.48,3.81,2.22,5.93,2.22,5.24,0,9.14-2.89,11.68-8.68l18.38,1.98c-4.54,13.32-14.81,19.98-30.83,19.98-18.04,0-27.07-7.38-27.07-22.15,0-8.59,2.97-15.97,8.93-22.15,5.95-6.18,14.33-9.26,25.14-9.26,7.75,0,13.94,1.58,18.58,4.75,4.63,3.17,7.36,7.91,8.2,14.21Z"/></svg>